<svg width="377" height="100" viewBox="0 0 377 100" fill="none" xmlns="http://www.w3.org/2000/svg">
<g clip-path="url(#clip0_74_425)">
<path fill-rule="evenodd" clip-rule="evenodd" d="M184.542 40.2675H222.428C220.305 43.5769 219.071 47.5218 219.071 51.7513C219.071 54.5574 219.614 57.2314 220.6 59.6817H86.1962C86.0184 58.7717 85.861 57.8516 85.7391 56.9264C85.4242 54.6642 85.2617 52.3512 85.2617 50.0025C85.2617 47.6539 85.4242 45.3409 85.7391 43.0787C85.8661 42.1332 86.0235 41.1978 86.2114 40.2675C90.7313 17.2186 111.025 -0.167221 135.377 -0.167221C159.728 -0.167221 180.022 17.2186 184.542 40.2675ZM135.377 19.5825C121.995 19.5825 110.634 28.2398 106.581 40.2675H164.172C160.119 28.2398 148.759 19.5825 135.377 19.5825Z" fill="#FFD731"/>
<path d="M135.377 80.4176C148.779 80.4176 160.155 71.7348 164.192 59.6817H184.557C180.053 82.756 159.749 100.167 135.377 100.167V80.4176Z" fill="#FFD731"/>
<path d="M376.577 1.50528V59.6613H376.561V59.6817H220.6C219.614 57.2314 219.071 54.5574 219.071 51.7513C219.071 47.5218 220.305 43.5769 222.428 40.2675H299.073V1.50528H318.463V40.2675H357.182V1.50528H376.577Z" fill="#FFD731"/>
<path d="M250.009 90.7728V70.6774C254.534 68.3492 258.115 64.4399 260.029 59.6817H279.307V98.8048H250.014V90.7728H250.009Z" fill="#FF0074"/>
<path d="M240.314 30.4816C232.976 30.4816 226.501 34.2079 222.682 39.8761C222.595 40.0032 222.509 40.1353 222.428 40.2675C220.305 43.5769 219.071 47.5218 219.071 51.7513C219.071 54.5574 219.614 57.2314 220.6 59.6817C222.514 64.4399 226.094 68.3492 230.619 70.6774V98.8048H201.326V39.8761C201.54 18.5098 218.919 1.25111 240.314 1.25111C261.71 1.25111 279.089 18.5098 279.302 39.8761C279.307 40.0032 279.307 40.1353 279.307 40.2675H258.201C258.12 40.1353 258.033 40.0032 257.947 39.8761C254.128 34.2079 247.653 30.4816 240.314 30.4816Z" fill="#FF0074"/>
<path d="M318.468 73.0159H299.073V98.6523H318.468V73.0159Z" fill="#FF0074"/>
<path d="M376.577 73.0159H357.182V98.6523H376.577V73.0159Z" fill="#FF0074"/>
<path d="M77.329 29.7547H77.3341V1.50528H58.0102V31.5543C58.0102 38.7577 54.0947 45.0461 48.2798 48.4063C45.4256 50.0585 42.1094 51.004 38.5798 51.004C35.0502 51.004 31.739 50.0636 28.8849 48.4114C23.0699 45.0512 19.1544 38.7628 19.1544 31.5543V1.50528H-0.169434V29.7547H-0.164355C-0.169434 29.9987 -0.169434 30.2427 -0.169434 30.4867C-0.169434 48.5588 12.1765 63.7435 28.8849 68.0492V98.4998H48.2798V68.0492C64.9932 63.7384 77.3341 48.5537 77.3341 30.4867C77.3341 30.2431 77.3341 29.9983 77.329 29.7547Z" fill="#FF0074"/>
</g>
<defs>
<clipPath id="clip0_74_425">
<rect width="377" height="100" fill="white"/>
</clipPath>
</defs>
</svg>
